<mxfile host="app.diagrams.net" agent="Mozilla/5.0 (Windows NT 10.0; Win64; x64; rv:137.0) Gecko/20100101 Firefox/137.0" version="26.2.6">
  <diagram name="Página-1" id="OOlFqbrFrxJH8qc2XteN">
    <mxGraphModel grid="1" page="1" gridSize="10" guides="1" tooltips="1" connect="1" arrows="1" fold="1" pageScale="1" pageWidth="827" pageHeight="1169" math="0" shadow="0">
      <root>
        <mxCell id="0" />
        <mxCell id="1" parent="0" />
        <mxCell id="i1dM9BGu6ernbT9dqkfx-84" style="edgeStyle=orthogonalEdgeStyle;rounded=0;orthogonalLoop=1;jettySize=auto;html=1;exitX=0;exitY=0.25;exitDx=0;exitDy=0;" edge="1" parent="1" source="i1dM9BGu6ernbT9dqkfx-4" target="i1dM9BGu6ernbT9dqkfx-82">
          <mxGeometry relative="1" as="geometry" />
        </mxCell>
        <mxCell id="i1dM9BGu6ernbT9dqkfx-85" style="edgeStyle=orthogonalEdgeStyle;rounded=0;orthogonalLoop=1;jettySize=auto;html=1;exitX=0;exitY=0.75;exitDx=0;exitDy=0;" edge="1" parent="1" source="i1dM9BGu6ernbT9dqkfx-4" target="i1dM9BGu6ernbT9dqkfx-83">
          <mxGeometry relative="1" as="geometry" />
        </mxCell>
        <mxCell id="i1dM9BGu6ernbT9dqkfx-4" value="API Gateway" style="html=1;whiteSpace=wrap;" vertex="1" parent="1">
          <mxGeometry x="150" y="410" width="110" height="50" as="geometry" />
        </mxCell>
        <mxCell id="i1dM9BGu6ernbT9dqkfx-27" style="edgeStyle=orthogonalEdgeStyle;rounded=0;orthogonalLoop=1;jettySize=auto;html=1;entryX=1;entryY=0.5;entryDx=0;entryDy=0;" edge="1" parent="1" source="i1dM9BGu6ernbT9dqkfx-5" target="i1dM9BGu6ernbT9dqkfx-4">
          <mxGeometry relative="1" as="geometry" />
        </mxCell>
        <mxCell id="i1dM9BGu6ernbT9dqkfx-5" value="Gestion Inventario" style="html=1;whiteSpace=wrap;" vertex="1" parent="1">
          <mxGeometry x="620" y="-65" width="120" height="40" as="geometry" />
        </mxCell>
        <mxCell id="i1dM9BGu6ernbT9dqkfx-31" style="edgeStyle=orthogonalEdgeStyle;rounded=0;orthogonalLoop=1;jettySize=auto;html=1;entryX=1;entryY=0.75;entryDx=0;entryDy=0;" edge="1" parent="1" source="i1dM9BGu6ernbT9dqkfx-6" target="i1dM9BGu6ernbT9dqkfx-4">
          <mxGeometry relative="1" as="geometry" />
        </mxCell>
        <mxCell id="i1dM9BGu6ernbT9dqkfx-6" value="Descuentos" style="html=1;whiteSpace=wrap;" vertex="1" parent="1">
          <mxGeometry x="620" y="255" width="120" height="40" as="geometry" />
        </mxCell>
        <mxCell id="i1dM9BGu6ernbT9dqkfx-25" style="edgeStyle=orthogonalEdgeStyle;rounded=0;orthogonalLoop=1;jettySize=auto;html=1;exitX=0;exitY=0.5;exitDx=0;exitDy=0;entryX=1;entryY=0.75;entryDx=0;entryDy=0;" edge="1" parent="1" source="i1dM9BGu6ernbT9dqkfx-7" target="i1dM9BGu6ernbT9dqkfx-4">
          <mxGeometry relative="1" as="geometry" />
        </mxCell>
        <mxCell id="i1dM9BGu6ernbT9dqkfx-7" value="Gestion de pedidos" style="html=1;whiteSpace=wrap;" vertex="1" parent="1">
          <mxGeometry x="620" y="-145" width="120" height="40" as="geometry" />
        </mxCell>
        <mxCell id="i1dM9BGu6ernbT9dqkfx-28" style="edgeStyle=orthogonalEdgeStyle;rounded=0;orthogonalLoop=1;jettySize=auto;html=1;entryX=1;entryY=0.5;entryDx=0;entryDy=0;" edge="1" parent="1" source="i1dM9BGu6ernbT9dqkfx-9" target="i1dM9BGu6ernbT9dqkfx-4">
          <mxGeometry relative="1" as="geometry" />
        </mxCell>
        <mxCell id="i1dM9BGu6ernbT9dqkfx-9" value="Reportes" style="html=1;whiteSpace=wrap;" vertex="1" parent="1">
          <mxGeometry x="620" y="15" width="120" height="40" as="geometry" />
        </mxCell>
        <mxCell id="i1dM9BGu6ernbT9dqkfx-33" style="edgeStyle=orthogonalEdgeStyle;rounded=0;orthogonalLoop=1;jettySize=auto;html=1;entryX=1;entryY=0.5;entryDx=0;entryDy=0;" edge="1" parent="1" source="i1dM9BGu6ernbT9dqkfx-10" target="i1dM9BGu6ernbT9dqkfx-4">
          <mxGeometry relative="1" as="geometry" />
        </mxCell>
        <mxCell id="i1dM9BGu6ernbT9dqkfx-10" value="Carrito de compra" style="html=1;whiteSpace=wrap;" vertex="1" parent="1">
          <mxGeometry x="620" y="415" width="120" height="40" as="geometry" />
        </mxCell>
        <mxCell id="i1dM9BGu6ernbT9dqkfx-30" style="edgeStyle=orthogonalEdgeStyle;rounded=0;orthogonalLoop=1;jettySize=auto;html=1;entryX=1;entryY=0.5;entryDx=0;entryDy=0;" edge="1" parent="1" source="i1dM9BGu6ernbT9dqkfx-11" target="i1dM9BGu6ernbT9dqkfx-4">
          <mxGeometry relative="1" as="geometry" />
        </mxCell>
        <mxCell id="i1dM9BGu6ernbT9dqkfx-11" value="Envios" style="html=1;whiteSpace=wrap;" vertex="1" parent="1">
          <mxGeometry x="620" y="175" width="120" height="40" as="geometry" />
        </mxCell>
        <mxCell id="i1dM9BGu6ernbT9dqkfx-32" style="edgeStyle=orthogonalEdgeStyle;rounded=0;orthogonalLoop=1;jettySize=auto;html=1;entryX=1;entryY=0.75;entryDx=0;entryDy=0;" edge="1" parent="1" source="i1dM9BGu6ernbT9dqkfx-12" target="i1dM9BGu6ernbT9dqkfx-4">
          <mxGeometry relative="1" as="geometry" />
        </mxCell>
        <mxCell id="i1dM9BGu6ernbT9dqkfx-12" value="Catologo de producto" style="html=1;whiteSpace=wrap;" vertex="1" parent="1">
          <mxGeometry x="620" y="335" width="120" height="40" as="geometry" />
        </mxCell>
        <mxCell id="i1dM9BGu6ernbT9dqkfx-29" style="edgeStyle=orthogonalEdgeStyle;rounded=0;orthogonalLoop=1;jettySize=auto;html=1;entryX=1;entryY=0.5;entryDx=0;entryDy=0;" edge="1" parent="1" source="i1dM9BGu6ernbT9dqkfx-13" target="i1dM9BGu6ernbT9dqkfx-4">
          <mxGeometry relative="1" as="geometry" />
        </mxCell>
        <mxCell id="i1dM9BGu6ernbT9dqkfx-13" value="Facturacion/Boletas" style="html=1;whiteSpace=wrap;" vertex="1" parent="1">
          <mxGeometry x="620" y="95" width="120" height="40" as="geometry" />
        </mxCell>
        <mxCell id="i1dM9BGu6ernbT9dqkfx-24" style="edgeStyle=orthogonalEdgeStyle;rounded=0;orthogonalLoop=1;jettySize=auto;html=1;entryX=1;entryY=0.5;entryDx=0;entryDy=0;" edge="1" parent="1" source="i1dM9BGu6ernbT9dqkfx-14" target="i1dM9BGu6ernbT9dqkfx-4">
          <mxGeometry relative="1" as="geometry" />
        </mxCell>
        <mxCell id="i1dM9BGu6ernbT9dqkfx-14" value="Usuarios" style="html=1;whiteSpace=wrap;" vertex="1" parent="1">
          <mxGeometry x="620" y="-225" width="120" height="40" as="geometry" />
        </mxCell>
        <mxCell id="i1dM9BGu6ernbT9dqkfx-34" style="edgeStyle=orthogonalEdgeStyle;rounded=0;orthogonalLoop=1;jettySize=auto;html=1;entryX=1;entryY=0.75;entryDx=0;entryDy=0;" edge="1" parent="1" source="i1dM9BGu6ernbT9dqkfx-15" target="i1dM9BGu6ernbT9dqkfx-4">
          <mxGeometry relative="1" as="geometry" />
        </mxCell>
        <mxCell id="i1dM9BGu6ernbT9dqkfx-15" value="&lt;div&gt;Perfil de cliente&lt;/div&gt;" style="html=1;whiteSpace=wrap;" vertex="1" parent="1">
          <mxGeometry x="620" y="495" width="120" height="40" as="geometry" />
        </mxCell>
        <mxCell id="i1dM9BGu6ernbT9dqkfx-37" style="edgeStyle=orthogonalEdgeStyle;rounded=0;orthogonalLoop=1;jettySize=auto;html=1;entryX=1;entryY=0.75;entryDx=0;entryDy=0;" edge="1" parent="1" source="i1dM9BGu6ernbT9dqkfx-16" target="i1dM9BGu6ernbT9dqkfx-4">
          <mxGeometry relative="1" as="geometry" />
        </mxCell>
        <mxCell id="i1dM9BGu6ernbT9dqkfx-16" value="Reseñas" style="html=1;whiteSpace=wrap;" vertex="1" parent="1">
          <mxGeometry x="620" y="735" width="120" height="40" as="geometry" />
        </mxCell>
        <mxCell id="i1dM9BGu6ernbT9dqkfx-35" style="edgeStyle=orthogonalEdgeStyle;rounded=0;orthogonalLoop=1;jettySize=auto;html=1;entryX=1;entryY=0.75;entryDx=0;entryDy=0;" edge="1" parent="1" source="i1dM9BGu6ernbT9dqkfx-17" target="i1dM9BGu6ernbT9dqkfx-4">
          <mxGeometry relative="1" as="geometry" />
        </mxCell>
        <mxCell id="i1dM9BGu6ernbT9dqkfx-17" value="Notificaciones" style="html=1;whiteSpace=wrap;" vertex="1" parent="1">
          <mxGeometry x="620" y="575" width="120" height="40" as="geometry" />
        </mxCell>
        <mxCell id="i1dM9BGu6ernbT9dqkfx-36" style="edgeStyle=orthogonalEdgeStyle;rounded=0;orthogonalLoop=1;jettySize=auto;html=1;entryX=1;entryY=0.75;entryDx=0;entryDy=0;" edge="1" parent="1" source="i1dM9BGu6ernbT9dqkfx-18" target="i1dM9BGu6ernbT9dqkfx-4">
          <mxGeometry relative="1" as="geometry" />
        </mxCell>
        <mxCell id="i1dM9BGu6ernbT9dqkfx-18" value="Seguimiento de pedidos" style="html=1;whiteSpace=wrap;" vertex="1" parent="1">
          <mxGeometry x="620" y="655" width="120" height="40" as="geometry" />
        </mxCell>
        <mxCell id="i1dM9BGu6ernbT9dqkfx-38" style="edgeStyle=orthogonalEdgeStyle;rounded=0;orthogonalLoop=1;jettySize=auto;html=1;entryX=1;entryY=0.5;entryDx=0;entryDy=0;" edge="1" parent="1" source="i1dM9BGu6ernbT9dqkfx-19" target="i1dM9BGu6ernbT9dqkfx-4">
          <mxGeometry relative="1" as="geometry" />
        </mxCell>
        <mxCell id="i1dM9BGu6ernbT9dqkfx-19" value="Pago" style="html=1;whiteSpace=wrap;" vertex="1" parent="1">
          <mxGeometry x="620" y="815" width="120" height="40" as="geometry" />
        </mxCell>
        <mxCell id="i1dM9BGu6ernbT9dqkfx-39" style="edgeStyle=orthogonalEdgeStyle;rounded=0;orthogonalLoop=1;jettySize=auto;html=1;entryX=1;entryY=0.5;entryDx=0;entryDy=0;" edge="1" parent="1" source="i1dM9BGu6ernbT9dqkfx-20" target="i1dM9BGu6ernbT9dqkfx-4">
          <mxGeometry relative="1" as="geometry" />
        </mxCell>
        <mxCell id="i1dM9BGu6ernbT9dqkfx-20" value="Gestion sucursales" style="html=1;whiteSpace=wrap;" vertex="1" parent="1">
          <mxGeometry x="620" y="895" width="120" height="40" as="geometry" />
        </mxCell>
        <mxCell id="i1dM9BGu6ernbT9dqkfx-40" style="edgeStyle=orthogonalEdgeStyle;rounded=0;orthogonalLoop=1;jettySize=auto;html=1;entryX=1;entryY=0.75;entryDx=0;entryDy=0;" edge="1" parent="1" source="i1dM9BGu6ernbT9dqkfx-22" target="i1dM9BGu6ernbT9dqkfx-4">
          <mxGeometry relative="1" as="geometry" />
        </mxCell>
        <mxCell id="i1dM9BGu6ernbT9dqkfx-22" value="Gestion de proveedores" style="html=1;whiteSpace=wrap;" vertex="1" parent="1">
          <mxGeometry x="620" y="975" width="120" height="40" as="geometry" />
        </mxCell>
        <mxCell id="i1dM9BGu6ernbT9dqkfx-41" style="edgeStyle=orthogonalEdgeStyle;rounded=0;orthogonalLoop=1;jettySize=auto;html=1;entryX=1;entryY=0.75;entryDx=0;entryDy=0;" edge="1" parent="1" source="i1dM9BGu6ernbT9dqkfx-23" target="i1dM9BGu6ernbT9dqkfx-4">
          <mxGeometry relative="1" as="geometry" />
        </mxCell>
        <mxCell id="i1dM9BGu6ernbT9dqkfx-23" value="Copias de seguridad" style="html=1;whiteSpace=wrap;" vertex="1" parent="1">
          <mxGeometry x="620" y="1055" width="120" height="40" as="geometry" />
        </mxCell>
        <mxCell id="i1dM9BGu6ernbT9dqkfx-65" style="edgeStyle=orthogonalEdgeStyle;rounded=0;orthogonalLoop=1;jettySize=auto;html=1;exitX=0;exitY=0.5;exitDx=0;exitDy=0;exitPerimeter=0;entryX=1;entryY=0.5;entryDx=0;entryDy=0;" edge="1" parent="1" source="i1dM9BGu6ernbT9dqkfx-42" target="i1dM9BGu6ernbT9dqkfx-7">
          <mxGeometry relative="1" as="geometry" />
        </mxCell>
        <mxCell id="i1dM9BGu6ernbT9dqkfx-42" value="" style="outlineConnect=0;dashed=0;verticalLabelPosition=bottom;verticalAlign=top;align=center;html=1;shape=mxgraph.aws3.database_migration_workflow_job;fillColor=#5294CF;gradientColor=none;pointerEvents=1" vertex="1" parent="1">
          <mxGeometry x="1090" y="-147.5" width="30" height="50" as="geometry" />
        </mxCell>
        <mxCell id="i1dM9BGu6ernbT9dqkfx-64" style="edgeStyle=orthogonalEdgeStyle;rounded=0;orthogonalLoop=1;jettySize=auto;html=1;entryX=1;entryY=0.5;entryDx=0;entryDy=0;" edge="1" parent="1" source="i1dM9BGu6ernbT9dqkfx-48" target="i1dM9BGu6ernbT9dqkfx-14">
          <mxGeometry relative="1" as="geometry" />
        </mxCell>
        <mxCell id="i1dM9BGu6ernbT9dqkfx-48" value="" style="outlineConnect=0;dashed=0;verticalLabelPosition=bottom;verticalAlign=top;align=center;html=1;shape=mxgraph.aws3.database_migration_workflow_job;fillColor=#5294CF;gradientColor=none;pointerEvents=1" vertex="1" parent="1">
          <mxGeometry x="1090" y="-217.5" width="30" height="50" as="geometry" />
        </mxCell>
        <mxCell id="i1dM9BGu6ernbT9dqkfx-66" style="edgeStyle=orthogonalEdgeStyle;rounded=0;orthogonalLoop=1;jettySize=auto;html=1;exitX=0;exitY=0.5;exitDx=0;exitDy=0;exitPerimeter=0;entryX=1;entryY=0.5;entryDx=0;entryDy=0;" edge="1" parent="1" source="i1dM9BGu6ernbT9dqkfx-49" target="i1dM9BGu6ernbT9dqkfx-5">
          <mxGeometry relative="1" as="geometry" />
        </mxCell>
        <mxCell id="i1dM9BGu6ernbT9dqkfx-49" value="" style="outlineConnect=0;dashed=0;verticalLabelPosition=bottom;verticalAlign=top;align=center;html=1;shape=mxgraph.aws3.database_migration_workflow_job;fillColor=#5294CF;gradientColor=none;pointerEvents=1" vertex="1" parent="1">
          <mxGeometry x="1090" y="-72.5" width="30" height="50" as="geometry" />
        </mxCell>
        <mxCell id="i1dM9BGu6ernbT9dqkfx-67" style="edgeStyle=orthogonalEdgeStyle;rounded=0;orthogonalLoop=1;jettySize=auto;html=1;exitX=0;exitY=0.5;exitDx=0;exitDy=0;exitPerimeter=0;entryX=1;entryY=0.5;entryDx=0;entryDy=0;" edge="1" parent="1" source="i1dM9BGu6ernbT9dqkfx-50" target="i1dM9BGu6ernbT9dqkfx-9">
          <mxGeometry relative="1" as="geometry" />
        </mxCell>
        <mxCell id="i1dM9BGu6ernbT9dqkfx-50" value="" style="outlineConnect=0;dashed=0;verticalLabelPosition=bottom;verticalAlign=top;align=center;html=1;shape=mxgraph.aws3.database_migration_workflow_job;fillColor=#5294CF;gradientColor=none;pointerEvents=1" vertex="1" parent="1">
          <mxGeometry x="1090" y="7.5" width="30" height="50" as="geometry" />
        </mxCell>
        <mxCell id="i1dM9BGu6ernbT9dqkfx-68" style="edgeStyle=orthogonalEdgeStyle;rounded=0;orthogonalLoop=1;jettySize=auto;html=1;exitX=0;exitY=0.5;exitDx=0;exitDy=0;exitPerimeter=0;entryX=1;entryY=0.5;entryDx=0;entryDy=0;" edge="1" parent="1" source="i1dM9BGu6ernbT9dqkfx-51" target="i1dM9BGu6ernbT9dqkfx-13">
          <mxGeometry relative="1" as="geometry" />
        </mxCell>
        <mxCell id="i1dM9BGu6ernbT9dqkfx-51" value="" style="outlineConnect=0;dashed=0;verticalLabelPosition=bottom;verticalAlign=top;align=center;html=1;shape=mxgraph.aws3.database_migration_workflow_job;fillColor=#5294CF;gradientColor=none;pointerEvents=1" vertex="1" parent="1">
          <mxGeometry x="1090" y="92.5" width="30" height="50" as="geometry" />
        </mxCell>
        <mxCell id="i1dM9BGu6ernbT9dqkfx-69" style="edgeStyle=orthogonalEdgeStyle;rounded=0;orthogonalLoop=1;jettySize=auto;html=1;exitX=0;exitY=0.5;exitDx=0;exitDy=0;exitPerimeter=0;entryX=1;entryY=0.5;entryDx=0;entryDy=0;" edge="1" parent="1" source="i1dM9BGu6ernbT9dqkfx-52" target="i1dM9BGu6ernbT9dqkfx-11">
          <mxGeometry relative="1" as="geometry" />
        </mxCell>
        <mxCell id="i1dM9BGu6ernbT9dqkfx-52" value="" style="outlineConnect=0;dashed=0;verticalLabelPosition=bottom;verticalAlign=top;align=center;html=1;shape=mxgraph.aws3.database_migration_workflow_job;fillColor=#5294CF;gradientColor=none;pointerEvents=1" vertex="1" parent="1">
          <mxGeometry x="1090" y="172.5" width="30" height="50" as="geometry" />
        </mxCell>
        <mxCell id="i1dM9BGu6ernbT9dqkfx-70" style="edgeStyle=orthogonalEdgeStyle;rounded=0;orthogonalLoop=1;jettySize=auto;html=1;exitX=0;exitY=0.5;exitDx=0;exitDy=0;exitPerimeter=0;entryX=1;entryY=0.5;entryDx=0;entryDy=0;" edge="1" parent="1" source="i1dM9BGu6ernbT9dqkfx-53" target="i1dM9BGu6ernbT9dqkfx-6">
          <mxGeometry relative="1" as="geometry" />
        </mxCell>
        <mxCell id="i1dM9BGu6ernbT9dqkfx-53" value="" style="outlineConnect=0;dashed=0;verticalLabelPosition=bottom;verticalAlign=top;align=center;html=1;shape=mxgraph.aws3.database_migration_workflow_job;fillColor=#5294CF;gradientColor=none;pointerEvents=1" vertex="1" parent="1">
          <mxGeometry x="1090" y="252.5" width="30" height="50" as="geometry" />
        </mxCell>
        <mxCell id="i1dM9BGu6ernbT9dqkfx-71" style="edgeStyle=orthogonalEdgeStyle;rounded=0;orthogonalLoop=1;jettySize=auto;html=1;exitX=0;exitY=0.5;exitDx=0;exitDy=0;exitPerimeter=0;entryX=1;entryY=0.5;entryDx=0;entryDy=0;" edge="1" parent="1" source="i1dM9BGu6ernbT9dqkfx-54" target="i1dM9BGu6ernbT9dqkfx-12">
          <mxGeometry relative="1" as="geometry" />
        </mxCell>
        <mxCell id="i1dM9BGu6ernbT9dqkfx-54" value="" style="outlineConnect=0;dashed=0;verticalLabelPosition=bottom;verticalAlign=top;align=center;html=1;shape=mxgraph.aws3.database_migration_workflow_job;fillColor=#5294CF;gradientColor=none;pointerEvents=1" vertex="1" parent="1">
          <mxGeometry x="1090" y="332.5" width="30" height="50" as="geometry" />
        </mxCell>
        <mxCell id="i1dM9BGu6ernbT9dqkfx-72" style="edgeStyle=orthogonalEdgeStyle;rounded=0;orthogonalLoop=1;jettySize=auto;html=1;exitX=0;exitY=0.5;exitDx=0;exitDy=0;exitPerimeter=0;entryX=1;entryY=0.5;entryDx=0;entryDy=0;" edge="1" parent="1" source="i1dM9BGu6ernbT9dqkfx-55" target="i1dM9BGu6ernbT9dqkfx-10">
          <mxGeometry relative="1" as="geometry" />
        </mxCell>
        <mxCell id="i1dM9BGu6ernbT9dqkfx-55" value="" style="outlineConnect=0;dashed=0;verticalLabelPosition=bottom;verticalAlign=top;align=center;html=1;shape=mxgraph.aws3.database_migration_workflow_job;fillColor=#5294CF;gradientColor=none;pointerEvents=1" vertex="1" parent="1">
          <mxGeometry x="1090" y="407.5" width="30" height="50" as="geometry" />
        </mxCell>
        <mxCell id="i1dM9BGu6ernbT9dqkfx-73" style="edgeStyle=orthogonalEdgeStyle;rounded=0;orthogonalLoop=1;jettySize=auto;html=1;exitX=0;exitY=0.5;exitDx=0;exitDy=0;exitPerimeter=0;entryX=1;entryY=0.5;entryDx=0;entryDy=0;" edge="1" parent="1" source="i1dM9BGu6ernbT9dqkfx-56" target="i1dM9BGu6ernbT9dqkfx-15">
          <mxGeometry relative="1" as="geometry" />
        </mxCell>
        <mxCell id="i1dM9BGu6ernbT9dqkfx-56" value="" style="outlineConnect=0;dashed=0;verticalLabelPosition=bottom;verticalAlign=top;align=center;html=1;shape=mxgraph.aws3.database_migration_workflow_job;fillColor=#5294CF;gradientColor=none;pointerEvents=1" vertex="1" parent="1">
          <mxGeometry x="1090" y="487.5" width="30" height="50" as="geometry" />
        </mxCell>
        <mxCell id="i1dM9BGu6ernbT9dqkfx-74" style="edgeStyle=orthogonalEdgeStyle;rounded=0;orthogonalLoop=1;jettySize=auto;html=1;exitX=0;exitY=0.5;exitDx=0;exitDy=0;exitPerimeter=0;" edge="1" parent="1" source="i1dM9BGu6ernbT9dqkfx-57" target="i1dM9BGu6ernbT9dqkfx-17">
          <mxGeometry relative="1" as="geometry" />
        </mxCell>
        <mxCell id="i1dM9BGu6ernbT9dqkfx-57" value="" style="outlineConnect=0;dashed=0;verticalLabelPosition=bottom;verticalAlign=top;align=center;html=1;shape=mxgraph.aws3.database_migration_workflow_job;fillColor=#5294CF;gradientColor=none;pointerEvents=1" vertex="1" parent="1">
          <mxGeometry x="1090" y="567.5" width="30" height="50" as="geometry" />
        </mxCell>
        <mxCell id="i1dM9BGu6ernbT9dqkfx-75" style="edgeStyle=orthogonalEdgeStyle;rounded=0;orthogonalLoop=1;jettySize=auto;html=1;exitX=0;exitY=0.5;exitDx=0;exitDy=0;exitPerimeter=0;entryX=1;entryY=0.5;entryDx=0;entryDy=0;" edge="1" parent="1" source="i1dM9BGu6ernbT9dqkfx-58" target="i1dM9BGu6ernbT9dqkfx-18">
          <mxGeometry relative="1" as="geometry" />
        </mxCell>
        <mxCell id="i1dM9BGu6ernbT9dqkfx-58" value="" style="outlineConnect=0;dashed=0;verticalLabelPosition=bottom;verticalAlign=top;align=center;html=1;shape=mxgraph.aws3.database_migration_workflow_job;fillColor=#5294CF;gradientColor=none;pointerEvents=1" vertex="1" parent="1">
          <mxGeometry x="1090" y="647.5" width="30" height="50" as="geometry" />
        </mxCell>
        <mxCell id="i1dM9BGu6ernbT9dqkfx-76" style="edgeStyle=orthogonalEdgeStyle;rounded=0;orthogonalLoop=1;jettySize=auto;html=1;exitX=0;exitY=0.5;exitDx=0;exitDy=0;exitPerimeter=0;" edge="1" parent="1" source="i1dM9BGu6ernbT9dqkfx-59" target="i1dM9BGu6ernbT9dqkfx-16">
          <mxGeometry relative="1" as="geometry" />
        </mxCell>
        <mxCell id="i1dM9BGu6ernbT9dqkfx-59" value="" style="outlineConnect=0;dashed=0;verticalLabelPosition=bottom;verticalAlign=top;align=center;html=1;shape=mxgraph.aws3.database_migration_workflow_job;fillColor=#5294CF;gradientColor=none;pointerEvents=1" vertex="1" parent="1">
          <mxGeometry x="1090" y="727.5" width="30" height="50" as="geometry" />
        </mxCell>
        <mxCell id="i1dM9BGu6ernbT9dqkfx-78" style="edgeStyle=orthogonalEdgeStyle;rounded=0;orthogonalLoop=1;jettySize=auto;html=1;exitX=0;exitY=0.5;exitDx=0;exitDy=0;exitPerimeter=0;entryX=1;entryY=0.5;entryDx=0;entryDy=0;" edge="1" parent="1" source="i1dM9BGu6ernbT9dqkfx-60" target="i1dM9BGu6ernbT9dqkfx-19">
          <mxGeometry relative="1" as="geometry" />
        </mxCell>
        <mxCell id="i1dM9BGu6ernbT9dqkfx-60" value="" style="outlineConnect=0;dashed=0;verticalLabelPosition=bottom;verticalAlign=top;align=center;html=1;shape=mxgraph.aws3.database_migration_workflow_job;fillColor=#5294CF;gradientColor=none;pointerEvents=1" vertex="1" parent="1">
          <mxGeometry x="1090" y="807.5" width="30" height="50" as="geometry" />
        </mxCell>
        <mxCell id="i1dM9BGu6ernbT9dqkfx-79" style="edgeStyle=orthogonalEdgeStyle;rounded=0;orthogonalLoop=1;jettySize=auto;html=1;exitX=0;exitY=0.5;exitDx=0;exitDy=0;exitPerimeter=0;entryX=1;entryY=0.5;entryDx=0;entryDy=0;" edge="1" parent="1" source="i1dM9BGu6ernbT9dqkfx-61" target="i1dM9BGu6ernbT9dqkfx-20">
          <mxGeometry relative="1" as="geometry" />
        </mxCell>
        <mxCell id="i1dM9BGu6ernbT9dqkfx-61" value="" style="outlineConnect=0;dashed=0;verticalLabelPosition=bottom;verticalAlign=top;align=center;html=1;shape=mxgraph.aws3.database_migration_workflow_job;fillColor=#5294CF;gradientColor=none;pointerEvents=1" vertex="1" parent="1">
          <mxGeometry x="1090" y="877.5" width="30" height="50" as="geometry" />
        </mxCell>
        <mxCell id="i1dM9BGu6ernbT9dqkfx-80" style="edgeStyle=orthogonalEdgeStyle;rounded=0;orthogonalLoop=1;jettySize=auto;html=1;exitX=0;exitY=0.5;exitDx=0;exitDy=0;exitPerimeter=0;entryX=1;entryY=0.5;entryDx=0;entryDy=0;" edge="1" parent="1" source="i1dM9BGu6ernbT9dqkfx-62" target="i1dM9BGu6ernbT9dqkfx-22">
          <mxGeometry relative="1" as="geometry" />
        </mxCell>
        <mxCell id="i1dM9BGu6ernbT9dqkfx-62" value="" style="outlineConnect=0;dashed=0;verticalLabelPosition=bottom;verticalAlign=top;align=center;html=1;shape=mxgraph.aws3.database_migration_workflow_job;fillColor=#5294CF;gradientColor=none;pointerEvents=1" vertex="1" parent="1">
          <mxGeometry x="1090" y="957.5" width="30" height="50" as="geometry" />
        </mxCell>
        <mxCell id="i1dM9BGu6ernbT9dqkfx-81" style="edgeStyle=orthogonalEdgeStyle;rounded=0;orthogonalLoop=1;jettySize=auto;html=1;exitX=0;exitY=0.5;exitDx=0;exitDy=0;exitPerimeter=0;entryX=1;entryY=0.5;entryDx=0;entryDy=0;" edge="1" parent="1" source="i1dM9BGu6ernbT9dqkfx-63" target="i1dM9BGu6ernbT9dqkfx-23">
          <mxGeometry relative="1" as="geometry" />
        </mxCell>
        <mxCell id="i1dM9BGu6ernbT9dqkfx-63" value="" style="outlineConnect=0;dashed=0;verticalLabelPosition=bottom;verticalAlign=top;align=center;html=1;shape=mxgraph.aws3.database_migration_workflow_job;fillColor=#5294CF;gradientColor=none;pointerEvents=1" vertex="1" parent="1">
          <mxGeometry x="1090" y="1037.5" width="30" height="50" as="geometry" />
        </mxCell>
        <mxCell id="i1dM9BGu6ernbT9dqkfx-82" value="" style="image;points=[];aspect=fixed;html=1;align=center;shadow=0;dashed=0;image=img/lib/allied_telesis/computer_and_terminals/Tablet.svg;" vertex="1" parent="1">
          <mxGeometry x="-299.99" y="275" width="47.37" height="100" as="geometry" />
        </mxCell>
        <mxCell id="i1dM9BGu6ernbT9dqkfx-83" value="" style="image;points=[];aspect=fixed;html=1;align=center;shadow=0;dashed=0;image=img/lib/allied_telesis/computer_and_terminals/Personal_Computer.svg;" vertex="1" parent="1">
          <mxGeometry x="-314.79" y="487.5" width="76.96" height="104.3" as="geometry" />
        </mxCell>
        <mxCell id="i1dM9BGu6ernbT9dqkfx-86" value="Plataforma web" style="text;align=center;fontStyle=1;verticalAlign=middle;spacingLeft=3;spacingRight=3;strokeColor=none;rotatable=0;points=[[0,0.5],[1,0.5]];portConstraint=eastwest;html=1;" vertex="1" parent="1">
          <mxGeometry x="-307.83" y="600" width="80" height="26" as="geometry" />
        </mxCell>
        <mxCell id="i1dM9BGu6ernbT9dqkfx-87" value="App Web" style="text;align=center;fontStyle=1;verticalAlign=middle;spacingLeft=3;spacingRight=3;strokeColor=none;rotatable=0;points=[[0,0.5],[1,0.5]];portConstraint=eastwest;html=1;" vertex="1" parent="1">
          <mxGeometry x="-307.83" y="250" width="80" height="26" as="geometry" />
        </mxCell>
      </root>
    </mxGraphModel>
  </diagram>
</mxfile>
